<svg xmlns="http://www.w3.org/2000/svg" viewBox="0 0 420 280" fill="none">
  <defs>
    <linearGradient id="bg" x1="0" y1="0" x2="420" y2="280" gradientUnits="userSpaceOnUse">
      <stop stop-color="#e0f2fe"/>
      <stop offset="0.5" stop-color="#fce7f3"/>
      <stop offset="1" stop-color="#f0f9ff"/>
    </linearGradient>
    <linearGradient id="moon" x1="200" y1="40" x2="360" y2="200" gradientUnits="userSpaceOnUse">
      <stop stop-color="#fef9c3"/>
      <stop offset="1" stop-color="#fde68a"/>
    </linearGradient>
  </defs>
  <rect width="420" height="280" rx="24" fill="url(#bg)"/>
  <circle cx="300" cy="100" r="55" fill="url(#moon)" opacity="0.95"/>
  <ellipse cx="180" cy="210" rx="120" ry="28" fill="#bae6fd" opacity="0.5"/>
  <path fill="#7dd3fc" d="M120 200c40-60 100-80 160-50 35 18 55 55 48 90H95c-8-35 8-70 25-90Z"/>
  <circle cx="200" cy="145" r="35" fill="#fecdd3"/>
  <ellipse cx="200" cy="195" rx="48" ry="38" fill="#fda4af"/>
  <circle cx="200" cy="135" r="22" fill="#fecdd3"/>
  <ellipse cx="168" cy="165" rx="12" ry="22" fill="#fecdd3" transform="rotate(-20 168 165)"/>
  <ellipse cx="232" cy="165" rx="12" ry="22" fill="#fecdd3" transform="rotate(20 232 165)"/>
  <circle cx="194" cy="128" r="3" fill="#9f1239"/>
  <circle cx="206" cy="128" r="3" fill="#9f1239"/>
  <path stroke="#be185d" stroke-width="2" stroke-linecap="round" d="M196 138q4 4 8 0"/>
  <path fill="#38bdf8" opacity="0.35" d="M60 120c20-30 45-40 70-20l15 50c-25-15-55-10-85-30Z"/>
  <path fill="#f472b6" opacity="0.4" d="M300 180c25-15 50-10 65 15l-40 25c-10-20-15-30-25-40Z"/>
</svg>
